<svg width="43" height="50" viewBox="0 0 43 50" fill="none" xmlns="http://www.w3.org/2000/svg">
<path fill-rule="evenodd" clip-rule="evenodd" d="M23.3441 0.260839C23.1165 0.503125 23.1015 0.626557 23.1015 2.25024C23.1015 3.91545 23.1113 3.99056 23.3597 4.22403C23.7139 4.55671 24.2629 4.54298 24.6131 4.19267C24.8799 3.92605 24.8871 3.87393 24.8871 2.23462C24.8871 0.595308 24.8799 0.543191 24.6131 0.276575C24.2508 -0.0859063 23.6766 -0.093049 23.3441 0.260839ZM15.1692 3.67684C14.6047 4.24144 14.693 4.45939 16.0406 5.82685C16.6992 6.49523 17.3466 7.06942 17.4793 7.10267C18.0755 7.25233 18.7578 6.46364 18.5325 5.88544C18.4795 5.74962 17.9112 5.12376 17.2696 4.49455C15.9544 3.20499 15.7289 3.11716 15.1692 3.67684ZM30.612 4.61151C29.1863 6.03721 29.1011 6.24256 29.6904 6.83193C30.2282 7.36973 30.535 7.23883 31.8826 5.89648C32.5077 5.27386 33.0486 4.64688 33.0847 4.50303C33.1628 4.192 32.8955 3.62696 32.5937 3.46558C32.1088 3.206 31.8922 3.33133 30.612 4.61151ZM23.0457 8.19458C21.7917 8.59289 20.8057 9.31338 20.4348 10.1026C20.2113 10.5778 20.1998 10.7761 20.1998 14.1513C20.1998 16.9192 20.1636 17.8394 20.0352 18.3323C19.8131 19.185 16.6737 25.2547 16.2049 25.7379C15.5072 26.4568 15.3261 26.5045 13.169 26.538L11.2159 26.5684L10.9927 26.2138C10.87 26.0189 10.5945 25.7668 10.3807 25.6535C10.0205 25.4629 9.64403 25.4477 5.26982 25.4477H0.547851L0.273982 25.7217L0 25.9956V37.7239V49.4522L0.273982 49.726L0.547851 50L5.32394 49.9996C9.85083 49.9992 10.1184 49.9879 10.4544 49.783C10.6493 49.6642 10.9224 49.4133 11.0613 49.2255L11.3137 48.884H18.1055H24.8973L25.1711 48.61C25.5471 48.2341 25.5411 47.6738 25.1572 47.3131L24.8692 47.0426L18.1263 47.0121L11.3833 46.9817V40.5237C11.3833 33.3012 11.4234 33.6568 10.5938 33.524C10.2723 33.4725 10.1313 33.5147 9.86835 33.7408L9.54192 34.0216L9.51078 41.118L9.47975 48.2144H5.63263H1.78562V37.7797V27.3449H5.63587H9.48612V28.6117C9.48612 30.432 9.66367 30.8046 10.5309 30.8046C11.1591 30.8046 11.3833 30.419 11.3833 29.3387V28.4609H13.0339C15.4761 28.4609 16.3881 28.1685 17.5164 27.0241C18.0481 26.4848 18.3732 25.9325 19.8242 23.1041C20.7532 21.2933 21.627 19.4603 21.7659 19.0306C22.0022 18.3001 22.0214 18.0178 22.062 14.6782C22.0858 12.714 22.1294 10.9942 22.159 10.8564C22.2375 10.4898 23.447 9.89806 24.1248 9.89472C24.7353 9.8917 25.1504 10.1436 26.1624 11.131C28.6436 13.5521 28.911 16.4736 27.1638 22.0718L26.7719 23.3273H26.1558C25.6181 23.3273 25.4963 23.3705 25.2003 23.6665C24.9151 23.9518 24.8724 24.0628 24.9325 24.3637C24.9719 24.5605 25.1047 24.8222 25.2277 24.9452C25.446 25.1633 25.6038 25.1689 31.8374 25.1793C38.8459 25.191 38.6233 25.171 39.6536 25.8798C40.545 26.4932 40.9805 27.3417 40.9865 28.4773C40.9901 29.141 40.9417 29.3079 40.5277 30.0624C39.9307 31.15 39.9163 31.5873 40.4505 32.3966C41.2967 33.6789 41.1675 35.0074 40.1035 35.9648C39.2002 36.7776 39.0686 36.9269 38.9939 37.2251C38.9508 37.3969 38.9821 37.7905 39.0638 38.1043C39.2726 38.9053 39.2331 39.7333 38.9607 40.2675C38.8347 40.5146 38.4309 40.9781 38.0634 41.2978C37.2428 42.0115 37.0916 42.3856 37.2811 43.2323C37.583 44.5814 37.253 45.6737 36.3308 46.377C35.5932 46.9396 35.3322 46.9766 32.0647 46.9819C29.0008 46.9868 28.559 47.0367 28.2757 47.4096C28.0334 47.7286 28.0918 48.3044 28.3975 48.61L28.6714 48.884H31.8336C35.2713 48.884 35.8053 48.8162 36.8492 48.2481C37.6029 47.8379 38.4487 46.9019 38.8706 46.0113C39.205 45.3052 39.2279 45.1785 39.2284 44.0293L39.2289 42.8017L39.7545 42.2655C40.5352 41.4691 40.984 40.478 41.044 39.4185C41.0706 38.9468 41.0462 38.3851 40.9895 38.1703C40.8909 37.7959 40.9089 37.7595 41.4225 37.2966C42.1998 36.5961 42.7603 35.4149 42.8298 34.3308C42.8874 33.4338 42.6162 32.2804 42.2021 31.6611L41.9912 31.3457L42.3952 30.5585C42.788 29.7929 42.7991 29.7368 42.7991 28.5301C42.7991 27.3275 42.7862 27.2621 42.3831 26.4177C41.904 25.4143 41.0109 24.4526 40.1123 23.9722C38.9615 23.357 38.6551 23.3273 33.463 23.3273H28.6936L28.9178 22.6856C29.3217 21.5298 29.8864 19.1643 30.0259 18.0436C30.1887 16.7345 30.1115 14.7317 29.8615 13.7854C29.7642 13.4171 29.4522 12.642 29.1681 12.063C28.7273 11.1647 28.4937 10.8525 27.5769 9.93556C26.2183 8.57704 25.2403 8.03365 24.1746 8.04537C23.7992 8.0495 23.2912 8.11657 23.0457 8.19458ZM11.7376 11.8674C11.4051 12.2214 11.4125 12.832 11.7532 13.1521C11.9951 13.3794 12.1197 13.3948 13.7113 13.3948C15.3673 13.3948 15.4182 13.3877 15.685 13.1208C15.8578 12.9481 15.959 12.7193 15.959 12.5019C15.959 12.2845 15.8578 12.0558 15.685 11.8831C15.418 11.6159 15.3682 11.6091 13.6957 11.6091C12.0468 11.6091 11.9708 11.6192 11.7376 11.8674ZM32.2722 11.8674C31.9398 12.2214 31.9471 12.832 32.2878 13.1521C32.5298 13.3794 32.6543 13.3948 34.246 13.3948C35.9019 13.3948 35.9528 13.3877 36.2197 13.1208C36.3924 12.9481 36.4936 12.7193 36.4936 12.5019C36.4936 12.2845 36.3924 12.0558 36.2197 11.8831C35.9526 11.6159 35.9028 11.6091 34.2304 11.6091C32.5815 11.6091 32.5055 11.6192 32.2722 11.8674Z" fill="black"/>
</svg>
