<svg width="60" height="37" viewBox="0 0 60 37" fill="none" xmlns="http://www.w3.org/2000/svg">
<path fill-rule="evenodd" clip-rule="evenodd" d="M1.3087 0.129379C0.934663 0.278106 0.398194 0.785999 0.185762 1.1926C-0.0619205 1.66665 -0.0619205 34.3986 0.185762 34.8727C0.407563 35.2972 0.941689 35.79 1.34559 35.9426C1.57524 36.0293 10.2721 36.0672 30 36.0672C49.7279 36.0672 58.4248 36.0293 58.6544 35.9426C59.0583 35.79 59.5924 35.2972 59.8142 34.8727C60.0619 34.3986 60.0619 1.66665 59.8142 1.1926C59.5924 0.768082 59.0583 0.275295 58.6544 0.122704C58.2101 -0.0452277 1.73123 -0.0386698 1.3087 0.129379ZM57.9887 18.0326V33.9592H30H2.01135V18.0326V2.10603H30H57.9887V18.0326ZM11.2953 4.10997C10.658 4.29407 10.1442 4.93734 9.9223 5.82864C9.36487 8.0682 8.13067 9.34502 5.993 9.89367C4.97768 10.1541 4.53607 10.4456 4.2447 11.0475C4.00838 11.5357 4.00217 11.7139 4.00217 18.0326C4.00217 24.3514 4.00838 24.5295 4.2447 25.0177C4.53607 25.6197 4.97768 25.9111 5.993 26.1716C8.12681 26.7192 9.3651 27.9978 9.91972 30.226C10.1452 31.1318 10.6788 31.7756 11.3615 31.9652C11.9645 32.1327 48.0481 32.1292 48.6516 31.9616C49.361 31.7646 49.8406 31.1888 50.073 30.2549C50.6355 27.9958 51.8628 26.7219 54.007 26.1716C55.0223 25.9111 55.4639 25.6197 55.7553 25.0177C55.9916 24.5295 55.9978 24.3514 55.9978 18.0326C55.9978 11.7139 55.9916 11.5357 55.7553 11.0475C55.4639 10.4456 55.0223 10.1541 54.007 9.89367C51.8628 9.34338 50.6355 8.06949 50.073 5.81037C49.8406 4.87644 49.361 4.30062 48.6516 4.10365C48.0809 3.9452 11.8443 3.95129 11.2953 4.10997ZM48.2954 7.09328C49.0425 9.44222 51.0208 11.3383 53.2439 11.8358L53.8899 11.9803V18.0241V24.0678L53.1056 24.2735C50.8554 24.8636 49.0343 26.6482 48.2884 28.994L47.976 29.9765H30H12.024L11.7046 28.972C10.9575 26.623 8.97923 24.727 6.75607 24.2295L6.11011 24.085V18.0326V11.9803L6.75607 11.8358C9.20092 11.2887 11.3114 9.06174 11.8986 6.40973L11.9699 6.08768L29.9729 6.08827L47.976 6.08874L48.2954 7.09328ZM28.7913 8.07933C26.3299 8.38287 23.9769 9.68077 22.261 11.6817C21.5327 12.5308 20.5815 14.4151 20.2669 15.6319C19.9243 16.9565 19.925 19.1367 20.2685 20.4333C21.05 23.3835 23.0066 25.7684 25.7029 27.0573C27.2037 27.7747 28.2768 28.0126 30 28.0102C31.6871 28.0077 32.8014 27.7686 34.1892 27.1111C35.4046 26.5353 36.1618 26.003 37.0594 25.0934C38.3824 23.7525 39.2564 22.2268 39.7287 20.4333C40.0766 19.1125 40.0776 16.9373 39.7308 15.6319C38.4233 10.7093 33.7316 7.47014 28.7913 8.07933ZM32.4007 10.4654C33.6505 10.8664 34.669 11.487 35.6078 12.4198C36.5306 13.3366 37.155 14.356 37.5752 15.6319C37.8409 16.4388 37.8841 16.7719 37.8871 18.0326C37.8899 19.3106 37.8506 19.6155 37.5785 20.4333C37.1563 21.7018 36.5347 22.7132 35.6077 23.6403C34.6805 24.5673 33.6692 25.1889 32.4007 25.6111C31.5828 25.8833 31.278 25.9225 30 25.9197C28.7392 25.9168 28.4062 25.8736 27.5993 25.6078C26.3234 25.1877 25.304 24.5632 24.3872 23.6404C23.4628 22.71 22.8417 21.6962 22.4221 20.4333C22.1517 19.6196 22.1108 19.3042 22.1108 18.0326C22.1108 16.7611 22.1517 16.4457 22.4221 15.6319C23.351 12.8358 25.4861 10.9144 28.4191 10.2352C29.474 9.99075 31.2402 10.0929 32.4007 10.4654ZM29.2937 12.298C29.1629 12.4288 29.0264 12.6829 28.9905 12.8626C28.947 13.0802 28.7877 13.2632 28.5133 13.411C27.6703 13.865 26.9552 15.0723 26.9552 16.0418C26.9552 17.6129 28.4418 19.0866 30.0266 19.0866C30.4807 19.0866 30.9369 19.5561 30.9369 20.0235C30.9369 20.4984 30.4811 20.9603 30.0124 20.9603C29.7729 20.9603 29.4926 20.8129 29.1217 20.4919C28.4838 19.9398 28.0702 19.8901 27.6164 20.3106C26.968 20.9115 27.439 22.1299 28.5173 22.6416C28.7981 22.7748 28.9364 22.9326 28.9849 23.1748C29.2047 24.274 30.7908 24.2959 31.0095 23.2027C31.053 22.9851 31.2123 22.8021 31.4867 22.6543C32.3498 22.1895 33.0448 21.0159 33.0448 20.0235C33.0448 18.4477 31.5629 16.9787 29.9734 16.9787C29.1807 16.9787 28.7814 15.9616 29.3506 15.3924C29.7945 14.9485 30.2726 15.0068 30.8335 15.5734C31.2157 15.9594 31.3771 16.0418 31.7508 16.0418C32.1133 16.0418 32.265 15.9697 32.5074 15.6815C32.6742 15.4833 32.8106 15.241 32.8106 15.1429C32.8106 14.6044 31.9853 13.5911 31.3503 13.3496C31.1867 13.2874 31.0599 13.1145 31.0156 12.8927C30.9078 12.3543 30.5491 12.0602 30 12.0602C29.6853 12.0602 29.4535 12.1383 29.2937 12.298ZM10.5989 14.2557C7.85536 15.409 7.12144 18.8168 9.1748 20.869C10.0202 21.7139 10.6474 21.9528 12.024 21.9543C13.0676 21.9554 13.2594 21.9216 13.786 21.6438C14.9553 21.0267 15.6933 20.0312 15.9742 18.6923C16.3128 17.0776 15.3718 15.2479 13.7806 14.4272C13.0054 14.0273 11.3541 13.9383 10.5989 14.2557ZM46.8635 14.1605C44.9428 14.7468 43.636 16.8338 44.0258 18.6923C44.3031 20.0147 45.0585 21.0316 46.2194 21.6457C46.7404 21.9214 46.934 21.9554 47.976 21.9543C48.9826 21.9532 49.2293 21.9125 49.7326 21.6644C50.5164 21.278 51.2636 20.5085 51.645 19.6951C52.0697 18.789 52.0903 17.3313 51.6907 16.4611C51.2555 15.5131 50.6923 14.9276 49.7733 14.4679C49.027 14.0945 48.8468 14.052 48.0481 14.0611C47.5576 14.0666 47.0245 14.1113 46.8635 14.1605ZM13.0771 16.3925C13.9024 16.9027 14.1909 18.1103 13.6973 18.9886C13.3395 19.6253 12.7651 19.9573 12.0281 19.9534C10.6972 19.9465 9.88049 18.903 10.1367 17.5369C10.3652 16.3188 11.956 15.6996 13.0771 16.3925ZM48.9744 16.3362C49.7799 16.7526 50.15 18.0149 49.7274 18.9052C49.4255 19.5413 48.7381 19.9566 47.9868 19.9566C45.7593 19.9566 45.3094 16.8299 47.4389 16.1486C47.8218 16.0261 48.5459 16.1145 48.9744 16.3362Z" fill="black"/>
</svg>
