<svg width="35" height="35" viewBox="0 0 35 35" fill="none" xmlns="http://www.w3.org/2000/svg">
<path id="Vector" d="M0 0V35H35V0H0ZM8.58337 6.8808C9.96966 6.8964 11.3352 7.85278 11.3947 9.50836C11.4243 10.9805 10.1413 12.1019 8.54706 12.1359H8.50862C7.13612 12.1201 5.79577 11.1397 5.73364 9.50836C5.75321 8.05257 6.97693 6.91533 8.58337 6.8808ZM23.4558 13.8364C24.9799 13.8458 26.4183 14.298 27.6001 15.5027C28.8282 16.8723 29.2225 18.7609 29.2664 20.6809V29.4138H24.2334V21.2747C24.2222 19.7492 23.6996 17.895 21.6806 17.8333C20.4973 17.8459 19.6629 18.5335 19.0915 19.6832C18.9355 20.0533 18.913 20.4787 18.9056 20.903V29.4138H13.8748C13.8941 25.159 13.9205 20.9046 13.9111 16.6498C13.9111 15.4412 13.8995 14.6274 13.8748 14.2081H18.9056V16.3528C19.3327 15.7455 19.8063 15.1695 20.4415 14.7058C21.3033 14.0908 22.3384 13.8551 23.4558 13.8364ZM6.03059 14.2081H11.0614V29.4138H6.03059V14.2081Z" fill="white"/>
</svg>
