<svg width="176" height="41" viewBox="0 0 176 41" fill="none" xmlns="http://www.w3.org/2000/svg">
<path d="M21.0845 14.9585C22.6815 12.763 29.29 3.71084 31.008 1.31368C31.2634 0.926294 31.6154 0.612166 32.0293 0.40226C32.4431 0.192353 33.0365 -0.0208188 33.5 0.00192261C39.1978 0.014327 44.8043 0.014327 50.5 0.00192261C51.328 0.00192261 52.0645 0.271712 52.6289 1.13072C52.8839 1.52941 53.0165 1.99407 53.0103 2.46729C53.0103 4.74971 53.0103 7.03212 53.0103 9.31453C53.0146 9.55702 52.968 9.79771 52.8737 10.0212C52.7794 10.2446 52.6394 10.4459 52.4628 10.612C52.2861 10.7782 52.0766 10.9056 51.8478 10.986C51.619 11.0664 51.376 11.0981 51.1342 11.0791C46.9508 11.0449 42.7612 11.0791 38.5871 11.0791C37.9297 11.0791 37.2722 11.1101 36.621 11.0791C36.3771 11.0573 36.1319 11.1038 35.9128 11.2133C35.6938 11.3228 35.5095 11.4911 35.3806 11.6993C33.0671 14.8221 30.7289 17.9325 28.4031 21.046C26.6168 23.4339 24.812 25.8093 23.0568 28.222C22.5358 28.9352 21.9373 29.3167 21.0473 29.2174C20.9071 29.2019 20.7657 29.2019 20.6255 29.2174C20.2696 29.2608 19.9088 29.2005 19.5864 29.0437C19.2641 28.8869 18.9938 28.6403 18.8083 28.3336C16.0359 24.51 13.2263 20.7018 10.4508 16.8905C10.3081 16.6983 10.1593 16.5122 9.9639 16.2703C9.8777 16.5234 9.85013 16.7927 9.88327 17.058C9.88327 24.1347 9.88327 31.2104 9.88327 38.2851C9.88327 39.7147 9.60727 39.9938 8.18697 39.9938H1.60022C1.40293 40.0046 1.20519 40.0046 1.00791 39.9938C0.710426 39.9633 0.437175 39.8161 0.248136 39.5844C-0.0464693 39.2154 0.00315046 38.8154 0.00315046 38.4184V2.77121C0.00315046 2.61305 0.00315046 2.4611 0.00315046 2.29674C0.0161766 1.76043 0.224283 1.24727 0.588488 0.853381C0.952693 0.459492 1.46635 0.0568379 2 0.00191607C2.5 0.00191607 3.5 0.00192938 4 0.00192383C5 0.00192383 6.01078 0.00192476 7.5 0.00192476C9.51078 0.00192356 10.2802 0.187977 11.1051 1.33849C14.2279 5.68624 20.8085 14.7632 21.0845 14.9585Z" fill="url(#paint0_linear_615_186)"/>
<path d="M66.3673 20.2302V37.5964C66.3673 37.8228 66.3673 38.0492 66.3673 38.2725C66.3368 38.7188 66.1416 39.1379 65.8196 39.4485C65.4975 39.7591 65.0716 39.9389 64.6245 39.9533C62.5571 39.9843 60.4969 39.9843 58.444 39.9533C58.0013 39.9389 57.5771 39.7722 57.2432 39.4812C56.9092 39.1902 56.686 38.7928 56.6112 38.3562C56.5858 38.0737 56.5776 37.79 56.5864 37.5065V26.6526C56.6046 26.3399 56.5754 26.0262 56.4996 25.7223C56.41 25.3691 56.2194 25.0496 55.9512 24.8029C55.6831 24.5562 55.3488 24.3929 54.9894 24.333C54.6105 24.2684 54.226 24.2425 53.8419 24.2555H37.1394C36.9378 24.2555 36.7331 24.2555 36.5192 24.2555C36.2523 24.2678 35.9857 24.2244 35.7365 24.1279C35.4874 24.0315 35.261 23.8842 35.0719 23.6954C34.8828 23.5066 34.7352 23.2805 34.6384 23.0315C34.5416 22.7825 34.4977 22.516 34.5096 22.2491C34.4879 21.5265 34.5096 20.804 34.5096 20.0783C34.5096 19.1294 34.5469 18.1773 34.5096 17.2315C34.4476 15.8732 35.3873 14.9429 36.7642 14.9553C42.5291 14.9956 48.2972 14.9739 54.0621 14.9708C54.7568 14.9708 55.4483 15.0359 56.1337 14.0404C56.4319 13.5928 56.5866 13.0649 56.5771 12.5271V2.78963C56.5687 2.51841 56.5791 2.24693 56.6081 1.97714C56.6689 1.54846 56.8611 1.14916 57.1582 0.834252C57.4553 0.519345 58.0765 0.087234 58.501 0.00171712C58.501 0.00171712 58.7074 0.00280958 59.001 0.00171553C60.5639 0.00171553 62.4422 0.00171553 64.001 0.00171553C64.2493 0.00484358 64.501 0.00170898 64.501 0.00170898C64.9861 0.0776589 65.4946 0.514232 65.8224 0.879839C66.1501 1.24545 66.3415 1.71303 66.3642 2.20352C66.3797 2.4268 66.3642 2.65627 66.3642 2.87955L66.3673 20.2302Z" fill="url(#paint1_linear_615_186)"/>
<path d="M43.8032 33.9868C43.8032 35.5373 43.7722 37.1065 43.8187 38.6632C43.8435 39.5191 43.2822 39.9905 42.4821 39.9812C40.0839 39.944 37.6878 39.944 35.2937 39.9812C35.1152 39.9989 34.935 39.9765 34.7662 39.9157C34.5974 39.8549 34.4444 39.7572 34.3181 39.6297C34.1918 39.5023 34.0956 39.3483 34.0364 39.1789C33.9772 39.0096 33.9564 38.8292 33.9758 38.6508C34.0099 35.4877 33.9758 32.3246 33.9758 29.1583C33.9758 28.0388 34.596 27.3876 35.7341 27.3752C37.8366 27.3752 39.9392 27.3566 42.0417 27.3752C43.1581 27.3752 43.7815 28.0481 43.7877 29.1739C43.8094 30.774 43.8032 32.3804 43.8032 33.9868Z" fill="url(#paint2_linear_615_186)"/>
<path d="M98.4428 0.00183105V15.9344H95.0724L95.1153 7.63106L92.0514 13.7896H89.637L86.4995 7.58511L86.5424 15.9344H83.4355V0.00183105H86.2513L90.9422 9.42655L95.6086 0.00183105H98.4428Z" fill="#272727"/>
<path d="M108 4.83982C108.731 5.23178 109.341 5.81704 109.763 6.53182C110.185 7.2466 110.403 8.06346 110.392 8.89342L110.368 15.9405H108.432L108.045 15.53C107.282 15.9028 106.444 16.0976 105.594 16.0998C103.725 16.0998 102.449 15.6821 101.764 14.8467C101.157 14.121 100.8 13.2181 100.747 12.273C100.693 11.5208 100.895 10.7724 101.32 10.1497C101.796 9.49559 102.449 8.99075 103.201 8.69428C103.996 8.3686 104.849 8.20606 105.708 8.2163C106.247 8.21308 106.784 8.29053 107.301 8.4461C107.175 8.06495 106.937 7.73071 106.618 7.48708C106.296 7.24381 105.906 7.10866 105.502 7.10102C105.113 7.08143 104.723 7.11233 104.341 7.19293C103.949 7.29615 103.583 7.48212 103.269 7.73832L102.745 8.19485L100.741 6.80382L101.24 6.0746C102.168 4.84902 103.588 4.23623 105.502 4.23623C106.373 4.22125 107.232 4.42902 108 4.83982ZM105.79 10.7012C105.217 10.6871 104.648 10.8045 104.127 11.0443C103.926 11.1136 103.752 11.2421 103.626 11.4128C103.5 11.5835 103.429 11.7883 103.422 12.0003C103.412 12.2665 103.462 12.5316 103.569 12.7755C103.724 13.0146 103.964 13.1856 104.24 13.2534C104.744 13.3949 105.267 13.4559 105.79 13.4342C106.146 13.4409 106.501 13.387 106.838 13.2749C106.961 13.2289 107.022 13.1922 107.022 13.1615V10.9739C107.022 10.9432 106.961 10.9065 106.838 10.8605C106.501 10.7483 106.146 10.6945 105.79 10.7012Z" fill="#272727"/>
<path d="M120.197 15.9344V10.3059C120.184 9.57811 120.032 8.8595 119.75 8.18868C119.443 7.44414 118.83 7.07035 117.911 7.07035C117.476 7.06833 117.046 7.16248 116.652 7.34609C116.528 7.40869 116.422 7.50271 116.346 7.61879C116.261 7.73888 116.217 7.88266 116.22 8.02937L116.195 15.9344H113.156V4.59774H115.212L115.626 5.21053C116.514 4.66287 117.538 4.37325 118.582 4.37406C119.502 4.36017 120.404 4.62393 121.171 5.13086C121.946 5.66081 122.557 6.39611 122.936 7.25418C123.374 8.23059 123.591 9.29123 123.573 10.361V15.9374L120.197 15.9344Z" fill="#272727"/>
<path d="M132.817 4.83982C133.549 5.23178 134.159 5.81704 134.581 6.53182C135.003 7.2466 135.221 8.06346 135.21 8.89342L135.186 15.9405H133.249L132.863 15.53C132.1 15.9028 131.262 16.0976 130.412 16.0998C128.543 16.0998 127.267 15.6821 126.582 14.8467C125.974 14.121 125.618 13.2181 125.565 12.273C125.511 11.5208 125.713 10.7724 126.138 10.1497C126.614 9.49559 127.267 8.99075 128.019 8.69428C128.814 8.3686 129.667 8.20606 130.526 8.2163C131.065 8.21308 131.602 8.29053 132.119 8.4461C131.993 8.06495 131.755 7.73071 131.436 7.48708C131.114 7.24381 130.723 7.10866 130.32 7.10102C129.931 7.08143 129.541 7.11233 129.159 7.19293C128.767 7.29615 128.401 7.48212 128.087 7.73832L127.563 8.19485L125.559 6.80382L126.058 6.0746C126.986 4.84902 128.406 4.23623 130.32 4.23623C131.19 4.22125 132.05 4.42902 132.817 4.83982ZM130.915 10.7012C130.341 10.6871 129.772 10.8045 129.251 11.0443C129.051 11.1136 128.876 11.2421 128.75 11.4128C128.624 11.5835 128.553 11.7883 128.546 12.0003C128.536 12.2665 128.586 12.5316 128.693 12.7755C128.848 13.0146 129.088 13.1856 129.364 13.2534C129.868 13.3949 130.392 13.4559 130.915 13.4342C131.27 13.4409 131.625 13.387 131.963 13.2749C132.085 13.2289 132.146 13.1922 132.146 13.1615V10.9739C132.146 10.9432 132.085 10.9065 131.963 10.8605C131.625 10.7483 131.27 10.6945 130.915 10.7012Z" fill="#272727"/>
<path d="M148.999 4.59774V16.5472C149.005 17.5275 148.719 18.4875 148.178 19.3047C147.622 20.1575 146.851 20.8495 145.944 21.3116C144.998 21.8036 143.947 22.0571 142.88 22.05C142.099 22.0528 141.323 21.918 140.588 21.6517C139.867 21.3935 139.2 21.0039 138.621 20.5027L137.803 19.7735L139.884 18.0852L140.469 18.4744C140.825 18.7008 141.212 18.8732 141.618 18.986C142.031 19.0888 142.455 19.1383 142.88 19.1331C143.606 19.1333 144.305 18.8573 144.835 18.361C145.091 18.1362 145.296 17.859 145.435 17.5482C145.575 17.2373 145.646 16.9001 145.644 16.5594V16.4001C144.881 16.7245 144.062 16.8953 143.233 16.9026C142.153 16.909 141.093 16.6175 140.169 16.06C139.241 15.5038 138.471 14.7189 137.932 13.7804C137.388 12.8298 137.102 11.7535 137.102 10.6582C137.102 9.56291 137.388 8.48662 137.932 7.53606C138.469 6.59974 139.24 5.81859 140.169 5.26874C141.107 4.71897 142.176 4.43224 143.264 4.43871C144.351 4.44518 145.417 4.74461 146.349 5.30551L146.793 4.59774H148.999ZM145.809 7.88842C145.729 7.76322 145.614 7.66419 145.479 7.60347C145.069 7.39828 144.616 7.29327 144.158 7.29708C143.595 7.29251 143.042 7.44647 142.562 7.74136C142.08 8.03294 141.683 8.44474 141.41 8.93629C141.134 9.4393 140.99 10.0036 140.99 10.577C140.99 11.1505 141.134 11.7148 141.41 12.2178C141.68 12.7093 142.078 13.1189 142.562 13.4035C143.044 13.6911 143.596 13.8406 144.158 13.8355C144.616 13.838 145.068 13.733 145.479 13.5291C145.615 13.4674 145.73 13.3679 145.811 13.2424C145.892 13.1169 145.935 12.9707 145.935 12.8214V8.28673C145.931 8.14489 145.887 8.00699 145.809 7.88842Z" fill="#272727"/>
<path d="M161.865 11.6448H154.647C154.873 12.0552 155.161 12.4283 155.501 12.7509C155.863 13.0053 156.286 13.1558 156.727 13.186C157.129 13.2083 157.532 13.1774 157.925 13.094C158.262 12.9934 158.57 12.8138 158.823 12.5701L159.325 12.0921L161.491 13.4587L160.922 14.2338C160.433 14.8442 159.801 15.325 159.083 15.6341C158.33 15.9506 157.52 16.1091 156.703 16.0998C155.76 16.1084 154.833 15.856 154.025 15.3706C153.21 14.8839 152.529 14.2028 152.042 13.3882C151.506 12.4889 151.211 11.4661 151.187 10.4192H151.123V10.1618C151.098 9.09102 151.32 8.02879 151.773 7.05805C152.171 6.20989 152.81 5.49796 153.611 5.01134C154.446 4.52188 155.401 4.27271 156.369 4.29131H156.675C157.632 4.26361 158.575 4.52318 159.382 5.03654C160.19 5.54991 160.825 6.2935 161.207 7.17142C161.649 8.17647 161.867 9.26613 161.844 10.3641L161.865 11.6448ZM158.844 8.88724C158.687 8.10287 158.408 7.60039 158.008 7.37978C157.615 7.16162 157.173 7.04769 156.724 7.04887H156.583C156.131 7.04706 155.687 7.1655 155.296 7.39203C154.898 7.61876 154.616 8.11819 154.46 8.88724H158.844Z" fill="#272727"/>
<path d="M175.349 0.00183105V15.9344H173.119L172.69 15.2542C171.737 15.8259 170.645 16.1238 169.534 16.1151C168.457 16.1211 167.398 15.8352 166.47 15.2879C165.54 14.744 164.767 13.968 164.227 13.0359C163.683 12.0986 163.396 11.0342 163.396 9.95047C163.396 8.86677 163.683 7.80233 164.227 6.86507C164.769 5.93871 165.542 5.16824 166.47 4.62839C167.397 4.07868 168.456 3.79166 169.534 3.79807C170.377 3.79073 171.212 3.96088 171.985 4.29748V0.00794624L175.349 0.00183105ZM170.223 6.66899C169.663 6.66453 169.111 6.81395 168.63 7.101C168.146 7.38567 167.748 7.79525 167.478 8.28675C167.205 8.77016 167.06 9.31557 167.058 9.87081C167.048 10.4274 167.179 10.9776 167.438 11.4702C167.71 11.9933 168.123 12.4296 168.63 12.7295C169.111 13.0165 169.663 13.166 170.223 13.1615C170.674 13.164 171.12 13.059 171.522 12.8551C171.659 12.7966 171.774 12.6984 171.853 12.5732C171.935 12.4474 171.979 12.3005 171.979 12.1504V7.67089C171.98 7.52445 171.936 7.38123 171.853 7.26033C171.768 7.13438 171.654 7.0296 171.522 6.95394C171.114 6.76846 170.671 6.67136 170.223 6.66899Z" fill="#272727"/>
<path d="M95.9919 23.2878V39.2204H92.9279V32.7861H86.4936V39.2204H83.4297V23.2878H86.4936V29.7221H92.9279V23.2878H95.9919Z" fill="#272727"/>
<path d="M109.166 34.9309H101.834C102.066 35.3212 102.354 35.6754 102.689 35.9819C103.05 36.2363 103.474 36.3868 103.915 36.417C104.316 36.4408 104.719 36.4098 105.113 36.325C105.45 36.2245 105.759 36.0449 106.013 35.8011L106.513 35.3231L108.679 36.6896L108.109 37.4648C107.622 38.0767 106.99 38.5579 106.271 38.8651C105.518 39.1841 104.708 39.3437 103.89 39.3338C102.948 39.3408 102.021 39.0886 101.212 38.6046C100.399 38.1161 99.7183 37.4354 99.2299 36.6222C98.7014 35.7385 98.4071 34.7345 98.375 33.7053H98.424V33.448C98.3986 32.3772 98.6209 31.3149 99.0736 30.3442C99.4718 29.496 100.111 28.7841 100.912 28.2975C101.747 27.808 102.702 27.5588 103.67 27.5774H103.976C104.933 27.5497 105.876 27.8093 106.683 28.3227C107.491 28.836 108.126 29.5796 108.508 30.4576C108.95 31.4626 109.168 32.5523 109.145 33.6502L109.166 34.9309ZM106.032 32.1734C105.875 31.389 105.596 30.8865 105.195 30.6659C104.803 30.4477 104.361 30.3338 103.912 30.335H103.771C103.319 30.3332 102.875 30.4516 102.484 30.6782C102.085 30.9049 101.804 31.4043 101.647 32.1734H106.032Z" fill="#272727"/>
<path d="M118.11 28.1258C118.842 28.5178 119.452 29.1031 119.874 29.8178C120.296 30.5326 120.514 31.3495 120.503 32.1794L120.479 39.2265H118.542L118.156 38.816C117.393 39.1888 116.555 39.3836 115.705 39.3859C113.836 39.3859 112.56 38.9681 111.875 38.1327C111.211 37.3418 110.848 36.3408 110.852 35.3078C110.841 34.7168 110.997 34.1347 111.302 33.6287C111.781 32.8801 112.484 32.3028 113.312 31.9803C114.107 31.6546 114.96 31.4921 115.819 31.5023C116.358 31.4991 116.895 31.5765 117.412 31.7321C117.286 31.351 117.048 31.0167 116.729 30.7731C116.407 30.5298 116.016 30.3947 115.613 30.387C115.224 30.3674 114.834 30.3983 114.452 30.4789C114.06 30.5822 113.694 30.7681 113.38 31.0243L112.856 31.4808L110.852 30.0898L111.351 29.3606C112.279 28.135 113.699 27.5222 115.613 27.5222C116.483 27.5073 117.343 27.715 118.11 28.1258ZM116.208 33.9473C115.634 33.9333 115.065 34.0507 114.544 34.2905C114.344 34.3598 114.169 34.4883 114.043 34.659C113.917 34.8297 113.846 35.0345 113.839 35.2465C113.829 35.5127 113.879 35.7778 113.986 36.0216C114.141 36.2608 114.381 36.4317 114.657 36.4996C115.161 36.641 115.685 36.7021 116.208 36.6804C116.563 36.6871 116.918 36.6332 117.256 36.5211C117.378 36.4782 117.439 36.4383 117.439 36.4077V34.22C117.439 34.1894 117.378 34.1526 117.256 34.1067C116.919 33.9893 116.564 33.9302 116.208 33.932V33.9473Z" fill="#272727"/>
<path d="M126.939 23.2878V39.2204H123.568V23.2878H126.939Z" fill="#272727"/>
<path d="M137.401 38.8221L136.576 39.0427C136.348 39.1043 136.116 39.1494 135.881 39.1775C135.636 39.2051 135.461 39.2204 135.351 39.2204H135.256C133.855 39.2204 132.814 38.9334 132.134 38.3594C131.52 37.891 131.073 37.238 130.859 36.4966C130.694 35.8217 130.612 35.1292 130.614 34.4345V30.3349H129.082V27.271H130.614V23.2878H133.984V27.271H136.436V30.3349H133.984V34.4345C133.963 34.9023 134.015 35.3706 134.138 35.8225C134.163 35.9355 134.211 36.0421 134.28 36.1354C134.348 36.2288 134.436 36.3069 134.536 36.3648C134.76 36.4385 134.996 36.4717 135.231 36.4628H135.28C135.509 36.4648 135.737 36.4505 135.964 36.42L136.858 36.3096L137.401 38.8221Z" fill="#272727"/>
<path d="M145.935 39.2205V33.3652C145.935 31.9987 145.668 31.0949 145.141 30.6537C144.736 30.2643 144.207 30.03 143.646 29.9919C143.212 29.9902 142.783 30.0843 142.39 30.2676C142.266 30.3448 142.161 30.4496 142.084 30.574C142.004 30.6961 141.963 30.8389 141.964 30.9845L141.94 39.2327H138.594V23.3002H141.964V27.5897C142.684 27.2616 143.465 27.0903 144.256 27.0872C145.195 27.0725 146.115 27.351 146.888 27.8839C147.678 28.4481 148.296 29.2201 148.674 30.1144C149.119 31.1492 149.338 32.2668 149.318 33.3928V39.2419L145.935 39.2205Z" fill="#272727"/>
<defs>
<linearGradient id="paint0_linear_615_186" x1="1.15056" y1="20.0382" x2="39.4647" y2="20.0382" gradientUnits="userSpaceOnUse">
<stop stop-color="#021652"/>
<stop offset="1" stop-color="#02A88C"/>
</linearGradient>
<linearGradient id="paint1_linear_615_186" x1="4822.49" y1="18782.1" x2="8816.9" y2="18782.1" gradientUnits="userSpaceOnUse">
<stop stop-color="#021652"/>
<stop offset="1" stop-color="#02A88C"/>
</linearGradient>
<linearGradient id="paint2_linear_615_186" x1="1741.2" y1="6531.02" x2="2855.61" y2="6531.02" gradientUnits="userSpaceOnUse">
<stop stop-color="#021652"/>
<stop offset="1" stop-color="#02A88C"/>
</linearGradient>
</defs>
</svg>
