<svg width="179" height="41" viewBox="0 0 179 41" fill="none" xmlns="http://www.w3.org/2000/svg">
<path d="M21.5235 15.2676C23.1538 13.0263 29.8998 3.78573 31.6536 1.33866C31.9144 0.943206 32.2737 0.622538 32.6961 0.408261C33.1186 0.193984 33.5896 0.0935002 34.0627 0.116715C39.8791 0.129378 45.6944 0.129378 51.5087 0.116715C52.354 0.116715 53.1485 0.274995 53.7247 1.15189C53.985 1.55888 54.1204 2.03321 54.1141 2.51629C54.1141 4.84623 54.1141 7.17616 54.1141 9.50609C54.1184 9.75363 54.0709 9.99934 53.9746 10.2274C53.8783 10.4555 53.7354 10.661 53.5551 10.8306C53.3748 11.0002 53.1609 11.1302 52.9274 11.2123C52.6938 11.2945 52.4457 11.3268 52.1988 11.3074C47.9284 11.2725 43.6515 11.3074 39.3905 11.3074C38.7194 11.3074 38.0483 11.339 37.3835 11.3074C37.1345 11.2852 36.8842 11.3326 36.6606 11.4444C36.437 11.5562 36.2489 11.728 36.1172 11.9405C33.7556 15.1283 31.3687 18.3035 28.9945 21.4818C27.171 23.9194 25.3286 26.3443 23.5368 28.8072C23.005 29.5353 22.394 29.9247 21.4855 29.8234C21.3424 29.8076 21.198 29.8076 21.0549 29.8234C20.6917 29.8677 20.3234 29.8061 19.9943 29.6461C19.6652 29.486 19.3893 29.2343 19.1999 28.9212C16.3697 25.0179 13.5016 21.1305 10.6684 17.2398C10.5228 17.0436 10.3708 16.8536 10.1714 16.6067C10.0834 16.865 10.0552 17.14 10.0891 17.4108C10.0891 24.6349 10.0891 31.8579 10.0891 39.0798C10.0891 40.5392 9.80731 40.8241 8.35743 40.8241H1.63354C1.43214 40.8352 1.23029 40.8352 1.02889 40.8241C0.725218 40.793 0.446278 40.6428 0.253302 40.4062C-0.0474369 40.0295 0.00321606 39.6212 0.00321606 39.216V2.82653C0.00321606 2.66508 0.00321606 2.50996 0.00321606 2.34218C0.0165134 1.79471 0.228953 1.27087 0.600741 0.868775C0.972529 0.466685 1.47816 0.213926 2.02291 0.157861C2.62537 0.0810985 3.23677 0.114349 3.82735 0.255996C5.08093 0.561972 6.38908 0.567401 7.64515 0.27183C9.36728 -0.123879 10.4943 0.189517 11.3363 1.36398C14.5242 5.80226 21.2417 15.0682 21.5235 15.2676Z" fill="white"/>
<path d="M67.7496 20.6495V38.3773C67.7496 38.6084 67.7496 38.8395 67.7496 39.0674C67.7184 39.5231 67.5192 39.9509 67.1904 40.2679C66.8617 40.585 66.4269 40.7686 65.9705 40.7832C63.86 40.8149 61.7569 40.8149 59.6613 40.7832C59.2093 40.7686 58.7764 40.5983 58.4355 40.3013C58.0946 40.0042 57.8667 39.5986 57.7904 39.1529C57.7644 38.8646 57.756 38.5749 57.765 38.2855V27.2057C57.7836 26.8864 57.7537 26.5662 57.6764 26.256C57.5849 25.8954 57.3904 25.5692 57.1166 25.3174C56.8429 25.0655 56.5017 24.8989 56.1347 24.8377C55.748 24.7718 55.3555 24.7453 54.9634 24.7586H37.9131C37.7073 24.7586 37.4984 24.7586 37.28 24.7586C37.0075 24.7712 36.7354 24.7268 36.481 24.6284C36.2267 24.53 35.9956 24.3796 35.8026 24.1869C35.6096 23.9942 35.4588 23.7633 35.36 23.5091C35.2612 23.2549 35.2164 22.9829 35.2286 22.7104C35.2064 21.9728 35.2286 21.2352 35.2286 20.4944C35.2286 19.5257 35.2666 18.5539 35.2286 17.5883C35.1653 16.2018 36.1245 15.2521 37.5301 15.2647C43.415 15.3059 49.3032 15.2837 55.1882 15.2806C55.8973 15.2806 56.6032 15.347 57.3028 14.3309C57.6073 13.8739 57.7652 13.335 57.7555 12.786V2.8458C57.747 2.56893 57.7576 2.2918 57.7872 2.01639C57.8492 1.57879 58.0454 1.17117 58.3487 0.849707C58.652 0.528244 59.0476 0.308748 59.4808 0.221451C59.7749 0.163609 60.0738 0.133929 60.3735 0.132812C61.969 0.132812 63.5624 0.132812 65.1537 0.132812C65.4072 0.136006 65.6601 0.158225 65.9103 0.199289C66.4055 0.27682 66.8587 0.523024 67.1933 0.896243C67.5279 1.26946 67.7233 1.74679 67.7464 2.24748C67.7622 2.47541 67.7464 2.70967 67.7464 2.93759L67.7496 20.6495Z" fill="white"/>
<path d="M100.492 0V16.2643H97.0511L97.0948 7.78808L93.9671 14.0749H91.5024L88.2996 7.74117L88.3434 16.2643H85.1719V0H88.0463L92.8349 9.62095L97.5984 0H100.492Z" fill="white"/>
<path d="M110.248 4.93871C110.995 5.33882 111.618 5.93628 112.048 6.66593C112.479 7.39559 112.701 8.22946 112.691 9.07671L112.666 16.2705H110.689L110.295 15.8514C109.516 16.232 108.66 16.4309 107.793 16.4332C105.885 16.4332 104.582 16.0068 103.883 15.1539C103.263 14.4131 102.898 13.4915 102.845 12.5266C102.789 11.7588 102.996 10.9948 103.43 10.3591C103.916 9.69142 104.582 9.17606 105.35 8.87342C106.162 8.54096 107.032 8.37503 107.909 8.38549C108.459 8.3822 109.008 8.46127 109.535 8.62007C109.406 8.23099 109.163 7.88979 108.837 7.64108C108.509 7.39275 108.111 7.25479 107.699 7.24698C107.301 7.22699 106.903 7.25853 106.514 7.34081C106.113 7.44618 105.74 7.63602 105.419 7.89756L104.884 8.36359L102.839 6.9436L103.348 6.1992C104.295 4.9481 105.745 4.32255 107.699 4.32255C108.587 4.30726 109.465 4.51936 110.248 4.93871ZM107.993 10.9221C107.408 10.9077 106.827 11.0276 106.295 11.2724C106.09 11.3432 105.912 11.4743 105.783 11.6486C105.655 11.8228 105.582 12.0319 105.575 12.2482C105.565 12.52 105.616 12.7906 105.725 13.0396C105.883 13.2837 106.128 13.4582 106.41 13.5275C106.925 13.6719 107.459 13.7342 107.993 13.712C108.356 13.7189 108.718 13.6639 109.063 13.5494C109.188 13.5025 109.25 13.465 109.25 13.4337V11.2005C109.25 11.1692 109.188 11.1317 109.063 11.0847C108.718 10.9703 108.356 10.9152 107.993 10.9221Z" fill="white"/>
<path d="M122.699 16.2644V10.5188C122.686 9.77583 122.531 9.04226 122.243 8.35747C121.93 7.59743 121.304 7.21586 120.366 7.21586C119.922 7.21379 119.483 7.3099 119.08 7.49734C118.954 7.56124 118.846 7.65722 118.768 7.77572C118.682 7.89831 118.637 8.04508 118.639 8.19484L118.614 16.2644H115.512V4.69176H117.61L118.033 5.31731C118.94 4.75825 119.985 4.4626 121.051 4.46342C121.99 4.44925 122.911 4.7185 123.694 5.23599C124.484 5.77697 125.108 6.52757 125.495 7.40351C125.942 8.40025 126.164 9.48298 126.146 10.5751V16.2676L122.699 16.2644Z" fill="white"/>
<path d="M135.582 4.93871C136.329 5.33882 136.952 5.93628 137.382 6.66593C137.813 7.39559 138.035 8.22946 138.025 9.07671L138 16.2705H136.023L135.629 15.8514C134.85 16.232 133.994 16.4309 133.127 16.4332C131.219 16.4332 129.916 16.0068 129.217 15.1539C128.597 14.4131 128.232 13.4915 128.179 12.5266C128.123 11.7588 128.33 10.9948 128.764 10.3591C129.25 9.69142 129.916 9.17606 130.684 8.87342C131.496 8.54096 132.366 8.37503 133.243 8.38549C133.793 8.3822 134.342 8.46127 134.869 8.62007C134.74 8.23099 134.497 7.88979 134.171 7.64108C133.843 7.39275 133.445 7.25479 133.033 7.24698C132.635 7.22699 132.237 7.25853 131.848 7.34081C131.447 7.44618 131.074 7.63602 130.753 7.89756L130.218 8.36359L128.172 6.9436L128.682 6.1992C129.629 4.9481 131.079 4.32255 133.033 4.32255C133.921 4.30726 134.799 4.51936 135.582 4.93871ZM133.64 10.9221C133.054 10.9077 132.473 11.0276 131.941 11.2724C131.737 11.3432 131.559 11.4743 131.43 11.6486C131.302 11.8228 131.229 12.0319 131.222 12.2482C131.211 12.52 131.263 12.7906 131.372 13.0396C131.53 13.2837 131.775 13.4582 132.057 13.5275C132.572 13.6719 133.106 13.7342 133.64 13.712C134.003 13.7189 134.365 13.6639 134.709 13.5494C134.835 13.5025 134.897 13.465 134.897 13.4337V11.2005C134.897 11.1692 134.835 11.1317 134.709 11.0847C134.365 10.9703 134.003 10.9152 133.64 10.9221Z" fill="white"/>
<path d="M152.1 4.69175V16.89C152.107 17.8907 151.815 18.8707 151.262 19.7049C150.694 20.5755 149.908 21.2819 148.982 21.7536C148.016 22.2559 146.943 22.5147 145.854 22.5074C145.056 22.5103 144.265 22.3726 143.515 22.1008C142.779 21.8372 142.098 21.4395 141.507 20.9279L140.671 20.1835L142.795 18.4601L143.393 18.8573C143.756 19.0884 144.151 19.2644 144.565 19.3796C144.987 19.4846 145.42 19.535 145.854 19.5298C146.595 19.53 147.309 19.2482 147.85 18.7416C148.111 18.5121 148.32 18.2291 148.462 17.9118C148.605 17.5945 148.678 17.2503 148.675 16.9025V16.7398C147.897 17.071 147.06 17.2453 146.214 17.2528C145.112 17.2594 144.03 16.9617 143.086 16.3926C142.139 15.8249 141.353 15.0237 140.803 14.0656C140.247 13.0952 139.955 11.9965 139.955 10.8784C139.955 9.7603 140.247 8.6616 140.803 7.69125C141.351 6.73544 142.138 5.93803 143.086 5.37673C144.044 4.81551 145.135 4.5228 146.246 4.52941C147.356 4.53601 148.444 4.84168 149.395 5.41426L149.848 4.69175H152.1ZM148.844 8.05095C148.762 7.92314 148.645 7.82204 148.506 7.76007C148.088 7.5506 147.626 7.44341 147.158 7.44729C146.583 7.44263 146.019 7.5998 145.529 7.90082C145.038 8.19847 144.632 8.61885 144.353 9.12063C144.072 9.63412 143.924 10.2101 143.924 10.7956C143.924 11.381 144.072 11.957 144.353 12.4705C144.629 12.9722 145.035 13.3903 145.529 13.6809C146.021 13.9745 146.585 14.127 147.158 14.1219C147.626 14.1244 148.088 14.0172 148.506 13.8091C148.645 13.7461 148.763 13.6445 148.846 13.5164C148.928 13.3883 148.972 13.2391 148.973 13.0866V8.45755C148.968 8.31275 148.924 8.17199 148.844 8.05095Z" fill="white"/>
<path d="M165.237 11.8856H157.868C158.1 12.3045 158.394 12.6854 158.741 13.0147C159.11 13.2744 159.542 13.428 159.992 13.4588C160.402 13.4816 160.813 13.4501 161.215 13.365C161.559 13.2623 161.873 13.0789 162.132 12.8302L162.645 12.3422L164.856 13.7372L164.274 14.5285C163.775 15.1516 163.131 15.6424 162.397 15.9579C161.628 16.2811 160.801 16.4429 159.967 16.4333C159.005 16.4421 158.059 16.1845 157.234 15.6889C156.402 15.1922 155.707 14.4968 155.21 13.6653C154.662 12.7473 154.362 11.7031 154.337 10.6345H154.272V10.3718C154.246 9.27864 154.472 8.1943 154.935 7.20335C155.341 6.33752 155.994 5.61077 156.811 5.11402C157.664 4.61437 158.638 4.36001 159.626 4.379H159.939C160.916 4.35072 161.878 4.6157 162.703 5.13975C163.527 5.6638 164.176 6.42287 164.565 7.31907C165.017 8.34505 165.239 9.4574 165.216 10.5782L165.237 11.8856ZM162.153 9.07062C161.993 8.26992 161.708 7.75697 161.3 7.53178C160.899 7.30907 160.448 7.19276 159.989 7.19397H159.845C159.384 7.19212 158.931 7.31303 158.532 7.54428C158.125 7.77573 157.837 8.28556 157.678 9.07062H162.153Z" fill="white"/>
<path d="M178.998 0V16.2643H176.721L176.284 15.5699C175.311 16.1535 174.196 16.4576 173.062 16.4488C171.962 16.4549 170.881 16.1631 169.934 15.6043C168.985 15.0491 168.196 14.257 167.645 13.3054C167.089 12.3487 166.797 11.2621 166.797 10.1558C166.797 9.04952 167.089 7.96292 167.645 7.00614C168.198 6.06049 168.987 5.27398 169.934 4.72289C170.881 4.16174 171.962 3.86874 173.062 3.87528C173.923 3.86779 174.775 4.04148 175.564 4.38509V0.00624251L178.998 0ZM173.766 6.80598C173.193 6.80142 172.631 6.95395 172.139 7.24698C171.646 7.53758 171.239 7.95569 170.963 8.45742C170.684 8.95089 170.537 9.50766 170.535 10.0745C170.524 10.6427 170.658 11.2043 170.923 11.7072C171.2 12.2411 171.621 12.6866 172.139 12.9927C172.631 13.2857 173.193 13.4382 173.766 13.4337C174.226 13.4362 174.681 13.329 175.092 13.1209C175.231 13.0612 175.349 12.9609 175.43 12.8331C175.513 12.7047 175.558 12.5548 175.558 12.4015V7.82874C175.559 7.67924 175.514 7.53305 175.43 7.40963C175.342 7.28106 175.227 7.17409 175.092 7.09686C174.675 6.90752 174.223 6.80839 173.766 6.80598Z" fill="white"/>
<path d="M97.9898 23.771V40.0353H94.862V33.467H88.2938V40.0353H85.166V23.771H88.2938V30.3393H94.862V23.771H97.9898Z" fill="white"/>
<path d="M111.44 35.6561H103.955C104.192 36.0545 104.486 36.416 104.828 36.7289C105.196 36.9886 105.629 37.1422 106.079 37.1731C106.489 37.1974 106.9 37.1658 107.302 37.0792C107.646 36.9766 107.962 36.7933 108.221 36.5444L108.731 36.0564L110.942 37.4514L110.361 38.2427C109.863 38.8674 109.218 39.3586 108.484 39.6721C107.716 39.9978 106.888 40.1607 106.054 40.1507C105.092 40.1578 104.146 39.9003 103.32 39.4062C102.49 38.9076 101.795 38.2127 101.296 37.3826C100.757 36.4805 100.457 35.4556 100.424 34.405H100.474V34.1423C100.448 33.0491 100.675 31.9648 101.137 30.9739C101.543 30.108 102.196 29.3813 103.014 28.8845C103.866 28.3849 104.84 28.1305 105.829 28.1495H106.141C107.118 28.1212 108.081 28.3862 108.905 28.9103C109.73 29.4343 110.378 30.1934 110.767 31.0896C111.219 32.1156 111.441 33.2279 111.418 34.3487L111.44 35.6561ZM108.24 32.8411C108.08 32.0404 107.795 31.5275 107.386 31.3023C106.985 31.0796 106.534 30.9633 106.076 30.9645H105.932C105.471 30.9626 105.017 31.0835 104.618 31.3148C104.212 31.5462 103.924 32.056 103.764 32.8411H108.24Z" fill="white"/>
<path d="M120.568 28.7097C121.315 29.1098 121.938 29.7073 122.369 30.4369C122.799 31.1666 123.022 32.0005 123.011 32.8477L122.986 40.0415H121.009L120.615 39.6224C119.836 40.003 118.98 40.2019 118.113 40.2042C116.205 40.2042 114.902 39.7778 114.203 38.9249C113.525 38.1175 113.155 37.0957 113.159 36.0412C113.147 35.4379 113.307 34.8437 113.619 34.3271C114.107 33.5629 114.825 32.9737 115.67 32.6444C116.482 32.3119 117.352 32.146 118.229 32.1565C118.78 32.1532 119.328 32.2323 119.855 32.3911C119.727 32.002 119.483 31.6608 119.158 31.4121C118.829 31.1637 118.431 31.0258 118.019 31.018C117.622 30.998 117.223 31.0295 116.834 31.1118C116.433 31.2172 116.06 31.407 115.739 31.6685L115.204 32.1346L113.159 30.7146L113.669 29.9702C114.615 28.7191 116.065 28.0935 118.019 28.0935C118.908 28.0783 119.785 28.2904 120.568 28.7097ZM118.626 34.6524C118.041 34.6381 117.46 34.7579 116.928 35.0027C116.723 35.0735 116.545 35.2047 116.416 35.3789C116.288 35.5532 116.215 35.7622 116.208 35.9786C116.198 36.2503 116.249 36.5209 116.358 36.7699C116.516 37.014 116.761 37.1886 117.043 37.2578C117.558 37.4022 118.092 37.4645 118.626 37.4424C118.989 37.4492 119.351 37.3942 119.696 37.2797C119.821 37.2359 119.883 37.1953 119.883 37.164V34.9308C119.883 34.8995 119.821 34.862 119.696 34.8151C119.352 34.6953 118.99 34.635 118.626 34.6368V34.6524Z" fill="white"/>
<path d="M129.581 23.771V40.0353H126.141V23.771H129.581Z" fill="white"/>
<path d="M140.261 39.6287L139.42 39.8539C139.187 39.9168 138.95 39.9628 138.71 39.9915C138.46 40.0197 138.281 40.0353 138.169 40.0353H138.072C136.642 40.0353 135.579 39.7423 134.885 39.1564C134.259 38.6782 133.802 38.0116 133.584 37.2547C133.415 36.5658 133.331 35.8589 133.333 35.1497V30.9648H131.77V27.8371H133.333V23.771H136.774V27.8371H139.276V30.9648H136.774V35.1497C136.752 35.6273 136.805 36.1053 136.93 36.5666C136.956 36.682 137.005 36.7908 137.075 36.8861C137.145 36.9814 137.234 37.0611 137.337 37.1202C137.566 37.1955 137.806 37.2294 138.047 37.2203H138.097C138.33 37.2223 138.563 37.2077 138.794 37.1765L139.708 37.0639L140.261 39.6287Z" fill="white"/>
<path d="M148.971 40.035V34.0578C148.971 32.6629 148.699 31.7402 148.161 31.2898C147.747 30.8924 147.207 30.6532 146.634 30.6142C146.191 30.6125 145.753 30.7086 145.352 30.8957C145.225 30.9745 145.118 31.0815 145.039 31.2085C144.958 31.3331 144.916 31.4789 144.917 31.6276L144.892 40.0475H141.477V23.7832H144.917V28.162C145.652 27.8271 146.449 27.6522 147.257 27.6491C148.215 27.6341 149.154 27.9184 149.943 28.4623C150.75 29.0383 151.381 29.8264 151.767 30.7393C152.221 31.7956 152.445 32.9365 152.424 34.086V40.0569L148.971 40.035Z" fill="white"/>
</svg>
